# xmcd
#
# Track frame offsets:
#	150
#	10836
#	22195
#	31345
#	43710
#	55301
#	66795
#	79079
#	92747
#	103870
#	115456
#	126192
#	137009
#	147006
#	157632
#	170148
#	180921
#	189206
#	200046
#	210295
#	221171
#	231305
#	242655
#	254136
#	264805
#
# Disc length: 3696 seconds
# Revision: 0
# Processed by: cddbd v1.5.2PL0 Copyright (c) Steve Scherf et al.
# Submitted via: dBpowerAMP V12.0
#
DISCID=630e6e19
DTITLE=Various Artist - 75 Pumpin' Piano Greats
DYEAR=2009
DGENRE=Rhythm and Blues
TTITLE0=Amos Milburn - Amos Boogie
TTITLE1=Merrill E. Moore - Red Light
TTITLE2=Chuck Miller - Vim Vam Vamoose
TTITLE3=Moon Mullican - Country Boogie
TTITLE4=Fats Domino - Please Don't Leave Me
TTITLE5=Champion Jack Dupree - Daybreak Rock
TTITLE6=Cecil Gant - Cecil Boogie No.2
TTITLE7=Professor Longhair - Hey Little Girl
TTITLE8=Piano Red - Rockin' With Red
TTITLE9=Ray Charles - Hallelujah I Love Her So
TTITLE10=Lloyd Glenn - Chica Boo
TTITLE11=Little Richard - Tutti Frutti
TTITLE12=Janis Martin featuring Shorty Long - Barefoot Baby
TTITLE13=Don Woody featuring Owen Bradley - Bird Dog
TTITLE14=Roy Hall - All By Myself
TTITLE15=Tennessee Ernie Ford featuring Moon Mullican - Country Junction
TTITLE16=Chuck Miller - Miller's Boogie
TTITLE17=Chuck Berry featuring Johnnie Johnson - Roll Over Beethoven
TTITLE18=Wanda Jackson featuring Merrill Moore - Cool Love
TTITLE19=Ella Mae Morse featuring Gerry Wiggins - Rock Me All Night Long
TTITLE20=Camille Howard - Instantaneous Boogie
TTITLE21=Moon Mullican - Pipeliner Blues
TTITLE22=Freddie Slack - Blackout Boogie
TTITLE23=Hardrock Gunter featuring Huel Murphy - Gonna Dance All Night
TTITLE24=Jerry Lee Lewis - It'll Be Me
EXTD=
EXTT0=
EXTT1=
EXTT2=
EXTT3=
EXTT4=
EXTT5=
EXTT6=
EXTT7=
EXTT8=
EXTT9=
EXTT10=
EXTT11=
EXTT12=
EXTT13=
EXTT14=
EXTT15=
EXTT16=
EXTT17=
EXTT18=
EXTT19=
EXTT20=
EXTT21=
EXTT22=
EXTT23=
EXTT24=
PLAYORDER=
